<svg xmlns="http://www.w3.org/2000/svg" version="1.1" xmlns:xlink="http://www.w3.org/1999/xlink" width="512" height="512" x="0" y="0" viewBox="0 0 58 40" style="enable-background:new 0 0 512 512" xml:space="preserve" class=""><g transform="matrix(1,0,0,1,1.0658141036401503e-14,0)"><g fill="none" transform="translate(0 -1)"><path fill="#e64c3c" d="M40.769 22.925a1.006 1.006 0 0 1 1.231.968V36a4.056 4.056 0 0 1-2.53 3.71c-.952.417.683.29-35.47.29a4.026 4.026 0 0 1-4-4V21a4 4 0 0 1 4-4h31.107a1.006 1.006 0 0 1 .968 1.231 3.987 3.987 0 0 0 4.694 4.694z" opacity="1" data-original="#e64c3c" class=""></path><g fill="#fff"><path d="M14 36a1 1 0 0 1-1-1V22a1 1 0 0 1 2 0v13a1 1 0 0 1-1 1zM22 36h-1a1 1 0 0 1-.975-.775l-3-13a1 1 0 0 1 1.95-.45L21.5 32.719l2.525-10.944a1 1 0 0 1 1.95.45l-3 13A1 1 0 0 1 22 36zM34 36h-5a1 1 0 0 1-1-1V22a1 1 0 0 1 2 0v12h4a1 1 0 0 1 0 2zM10 36H5a1 1 0 0 1-1-1V22a1 1 0 0 1 2 0v12h4a1 1 0 0 1 0 2z" fill="#ffffff" opacity="1" data-original="#ffffff" class=""></path><path d="M34 30h-5a1 1 0 0 1 0-2h5a1 1 0 0 1 0 2zM34 23h-5a1 1 0 0 1 0-2h5a1 1 0 0 1 0 2z" fill="#ffffff" opacity="1" data-original="#ffffff" class=""></path></g><path fill="#84b5cb" d="M29.337 9.94a13.993 13.993 0 1 1 20.028 19.454 2 2 0 1 0 2.657 2.982A17.988 17.988 0 1 0 26.281 7.364a2 2 0 1 0 3.056 2.576z" opacity="1" data-original="#84b5cb" class=""></path><path fill="#3b97d3" d="M36.494 14.129a6 6 0 0 1 8.334 8.425 1.955 1.955 0 0 0-.09 2.145 2 2 0 0 0 3.322.212 9.995 9.995 0 0 0-13.886-14.036 1.989 1.989 0 0 0 .323 3.373 1.939 1.939 0 0 0 1.997-.119z" opacity="1" data-original="#3b97d3" class=""></path><circle cx="40" cy="19" r="2" fill="#2980ba" opacity="1" data-original="#2980ba" class=""></circle></g></g></svg>